<?xml version="1.0" encoding="UTF-8" standalone="no"?>
<svg width="77px" height="89px" viewBox="0 0 77 89" version="1.1" xmlns="http://www.w3.org/2000/svg" xmlns:xlink="http://www.w3.org/1999/xlink">
    <!-- Generator: Sketch 40 (33762) - http://www.bohemiancoding.com/sketch -->
    <title>square copy 2</title>
    <desc>Created with Sketch.</desc>
    <defs>
        <polygon id="path-1" points="37.494742 0 74.989484 21.6475994 74.989484 64.9427982 37.494742 86.5903976 1.59872116e-14 64.9427982 -7.99360578e-15 21.6475994"></polygon>
    </defs>
    <g id="Artboard-1" stroke="none" stroke-width="1" fill="none" fill-rule="evenodd">
        <g id="square-copy-2" transform="translate(1.000000, 1.000000)">
            <mask id="mask-2" fill="white">
                <use xlink:href="#path-1"></use>
            </mask>
            <use id="Polygon" stroke="#979797" fill="#D8D8D8" xlink:href="#path-1"></use>
            <g id="background" mask="url(#mask-2)">
                <g transform="translate(-19.861215, -52.325581)">
                    <ellipse id="Oval-5" fill="#45256F" cx="82.2299325" cy="83.8615904" rx="82.2299325" ry="79.3604651"></ellipse>
                    <ellipse id="Oval-4" fill="#6F2061" cx="71.5397599" cy="80.4013503" rx="68.0513878" ry="67.6856714"></ellipse>
                    <ellipse id="Oval-3" fill="#9A1E52" cx="79.276069" cy="67.291823" rx="60.3150788" ry="67.291823"></ellipse>
                    <ellipse id="Oval-2" fill="#C31C47" cx="93.2576894" cy="67.319955" rx="54.6042761" ry="54.6042761"></ellipse>
                    <ellipse id="Oval" fill="#ED192F" cx="100.375094" cy="62.9876219" rx="44.9549887" ry="43.0138785"></ellipse>
                </g>
            </g>
            <g id="D-logo" mask="url(#mask-2)">
                <g transform="translate(14.909977, 20.817704)">
                    <g id="outside">
                        <path d="M21.3285657,6.71575478 C19.6165466,2.78732544 15.6989484,0.0410675791 11.139907,0.0410675791 C5.00467696,0.0410675791 0.0310903416,5.01449682 0.0310903416,11.1495327 C0.0310903416,16.6451 4.02189565,21.2085943 9.26361892,22.100215 L9.26361892,6.71210293 L20.923409,6.71210293 C21.059082,6.71210293 21.1941345,6.71332078 21.3285664,6.71575648 L21.3285657,6.71575478 Z" id="Combined-Shape" fill="#FFFFFF"></path>
                        <path d="M21.2184412,38.0011005 C19.466416,41.8331884 15.5992272,44.4958337 11.1101246,44.4958337 C4.97489461,44.4958337 0.00130799136,39.5224044 0.00130799136,33.3873686 C0.00130799136,27.8918012 3.9921133,23.3283069 9.23383656,22.4366862 L9.23383656,38.0034868 L20.8936267,38.0034868 C21.0022966,38.0034868 21.1105684,38.0026907 21.2184421,38.0010986 L21.2184412,38.0011005 Z" id="Combined-Shape" fill="#FFFFFF"></path>
                        <path d="M37.5041682,23.0918772 C41.5731401,24.7408033 44.4430751,28.7308627 44.4430751,33.3912101 C44.4430751,39.526246 39.4694885,44.4996752 33.3342585,44.4996752 C28.7984778,44.4996752 24.8976115,41.7813692 23.1719765,37.8850252 C24.7491993,37.7105091 26.233031,37.3492292 27.6234928,36.8011813 C29.663594,35.9970793 31.4207351,34.8951782 32.8949688,33.4954451 C34.3692025,32.0957119 35.508366,30.4428603 36.3124935,28.5368407 C37.0284227,26.8398771 37.4256448,25.0249038 37.5041682,23.0918772 L37.5041682,23.0918772 Z" id="Combined-Shape" fill="#FFFFFF"></path>
                        <path d="M33.417105,0.0410675791 C33.417105,0.0410675791 26.3289056,-0.256746731 23.1719765,6.77166574 C23.1719765,6.77166574 36.2762106,7.48641953 37.4675046,21.4836812 C37.4675046,21.4836812 44.4365745,19.3989827 44.4365745,10.4645603 L44.4365745,0.0410675791 L33.5362344,0.0410675791 L33.417105,0.0410675791 Z" id="Path-3" fill="#FFFFFF"></path>
                    </g>
                    <g id="inside" transform="translate(14.713789, 11.834505)">
                        <path d="M7.48146387,21.1978792 C7.29684851,16.5244081 4.22486396,12.5930523 4.32475173e-08,11.1382465 L0,21.2569006 L6.1649465,21.2569006 C6.61502966,21.2569006 7.05386847,21.2372268 7.48146387,21.1978792 L7.48146387,21.1978792 Z" id="Path" fill="#FFFFFF"></path>
                        <path d="M17.0266423,10.661744 C11.7833305,11.4075741 7.71912498,15.8143771 7.50515226,21.2111112 C8.62705049,21.1063757 9.67143689,20.8660088 10.6383282,20.4900074 C11.9785407,19.9688302 13.1177042,19.239193 14.0558529,18.3010739 C14.9940016,17.3629549 15.7236619,16.2461633 16.2448557,14.9506655 C16.7660494,13.6551678 17.0266423,12.2480104 17.0266423,10.729151 L17.0266423,10.661744 L17.0266423,10.661744 Z" id="Path" fill="#FFFFFF"></path>
                        <path d="M7.50515226,0.0595628156 C7.80178283,5.37293586 11.8327099,9.68936369 17.0164628,10.4274573 C16.9944389,8.98456055 16.734355,7.63690375 16.2362042,6.38444989 C15.7150105,5.07406139 14.9853502,3.94982449 14.0472014,3.01170545 C13.1090527,2.07358642 11.9698892,1.33650394 10.6296768,0.800435924 C9.66527124,0.414685925 8.62376863,0.167729221 7.50515226,0.0595628156 L7.50515226,0.0595628156 Z" id="Path" fill="#FFFFFF"></path>
                        <path d="M4.32475139e-08,9.93996559 C4.1706413,8.50383108 7.21780581,4.65430749 7.47293259,0.0599030311 C7.04803193,0.0199676225 6.61203687,-1.27929675e-14 6.1649465,-1.27929675e-14 L0,-1.27929675e-14 L0,9.93996599 L4.32475139e-08,9.93996559 Z" id="Path" fill="#FFFFFF"></path>
                    </g>
                </g>
            </g>
        </g>
    </g>
</svg>